<?xml version="1.0" encoding="UTF-8"?>
<svg version="1.1" viewBox="0 0 800 800" width="1280" height="1280" xmlns="http://www.w3.org/2000/svg">
<path transform="translate(299,525)" d="m0 0 4 1 3 3v2h2l5 5 9 8 18 11 16 7 18 5 14 2h24l18-3 16-5 19-9 12-8 11-9 7-7 2-3 4 1 14 10 19 19 13 18 9 16 7 16 8 24 5 22 3 21 1 11v28l-6 7-12 6-23 6-29 5-42 4-40 2h-59l-53-3-41-5-24-5-18-6-10-6-3-5-1-5v-11l2-26 4-24 5-20 6-18 8-18 10-18 9-12 12-14 13-12z"/>
<path transform="translate(119,245)" d="m0 0 4 1 3 3v2h2l5 5 9 8 13 8 16 8 15 5 15 3 8 1h22l19-3 21-7 19-10 12-9 10-9 5-6 4 1 11 8 10 9 12 12 13 18 10 18-2 3-19 5-16 7-14 8-11 9-3 1v2l-4 4h-2v2h-2l-2 4-9 12-6 10-6 12-6 18-3 15-1 20 1 16-2 1-19 1h-58l-44-2-32-3-27-4-19-4-18-6-8-5-5-6-1-5v-12l2-24 4-25 5-20 6-18 9-20 8-14 10-14 12-14 13-12z"/>
<path transform="translate(479,245)" d="m0 0 4 1 6 7 11 9 11 8 15 8 16 6 18 4 8 1h24l18-3 21-7 19-10 12-9 10-9 5-6 4 1 14 10 12 12 10 11 11 16 8 14 7 16 8 24 5 22 3 20 1 12v28l-6 7-10 5-20 6-27 5-35 4-32 2-25 1h-58l-18-1-1-5v-30l-4-20-6-17-10-19-10-13-6-7-8-7-12-9-18-10-20-7-9-2-2-2 3-7 8-14 9-12 12-14 13-12z"/>
<path transform="translate(388,339)" d="m0 0h25l18 4 12 5 13 7 9 7 10 9 10 13 6 10 6 14 4 16 1 7v19l-4 20-6 16-10 16-14 15-10 8-16 9-18 6-16 3h-16l-17-3-15-5-15-8-13-10-10-10-8-11-6-10-6-15-4-19v-23l4-18 6-16 10-16 11-12 10-9 13-8 13-6 16-4z"/>
<path transform="translate(207,59)" d="m0 0h26l18 4 12 5 13 7 14 11 11 12 9 14 7 16 4 17 1 7v17l-3 17-5 15-6 12-8 11-11 12-7 6-14 9-14 6-19 5-7 1h-16l-17-3-15-5-15-8-13-10-10-10-8-11-9-17-5-16-2-11v-23l4-18 6-16 10-16 14-15 10-8 14-8 16-6z"/>
<path transform="translate(567,59)" d="m0 0h26l18 4 12 5 13 7 10 8 10 9 10 13 8 15 5 15 3 16v18l-3 17-5 15-8 15-7 9-9 10-8 7-14 9-14 6-19 5-7 1h-16l-17-3-15-5-15-8-13-10-10-10-8-11-9-17-5-16-2-11v-23l4-18 6-16 10-16 14-15 10-8 14-8 16-6z"/>
</svg>
